Coordinates
version=1
nRows=17
nColumns=40
inDegrees=yes

Units are S.I. units (second, meters, Newtons, ...)
If the header above contains a line with 'inDegrees', this indicates whether rotational values are in degrees (yes) or radians (no).

endheader
time	pelvis_tilt	pelvis_list	pelvis_rotation	pelvis_tx	pelvis_ty	pelvis_tz	hip_flexion_r	hip_adduction_r	hip_rotation_r	knee_angle_r	knee_angle_r_beta	ankle_angle_r	subtalar_angle_r	mtp_angle_r	hip_flexion_l	hip_adduction_l	hip_rotation_l	knee_angle_l	knee_angle_l_beta	ankle_angle_l	subtalar_angle_l	mtp_angle_l	lumbar_extension	lumbar_bending	lumbar_rotation	arm_flex_r	arm_add_r	arm_rot_r	elbow_flex_r	pro_sup_r	wrist_flex_r	wrist_dev_r	arm_flex_l	arm_add_l	arm_rot_l	elbow_flex_l	pro_sup_l	wrist_flex_l	wrist_dev_l
      3.82500000	      1.12832474	     -0.31527094	      2.74981659	     -0.35424700	      0.86468564	     -1.00420902	     52.79135574	     -6.41418945	      2.45654311	     29.44740392	      0.51395415	      3.20260306	      0.00000000	      0.00000000	     41.51130696	     -2.24727497	     -7.89335532	     78.12897559	      1.36360787	     20.79911992	      0.00000000	      0.00000000	    -13.93475207	     -5.09553100	     -6.46070554	     89.87679108	     -5.36281508	     47.55761899	     47.44013645	     83.58103664	      0.00000000	      0.00000000	     89.94278834	    -13.21845920	     47.23369674	     48.96158803	     86.84594655	      0.00000000	      0.00000000
      3.83000000	      1.15999733	     -0.26833878	      2.76890327	     -0.35423691	      0.86443329	     -1.00424718	     52.83252040	     -6.44647696	      2.45771189	     29.46388103	      0.51424173	      3.18193349	      0.00000000	      0.00000000	     41.48809522	     -2.21234650	     -7.94518325	     78.17124548	      1.36434561	     20.82586383	      0.00000000	      0.00000000	    -13.97666227	     -5.11008875	     -6.50425619	     89.87733105	     -5.30684296	     47.54955756	     47.36098731	     83.76763588	      0.00000000	      0.00000000	     89.94277135	    -13.27054994	     47.23568844	     49.03487636	     86.81684757	      0.00000000	      0.00000000
      3.83500000	      1.14836804	     -0.26394231	      2.86712900	     -0.35430684	      0.86411892	     -1.00435697	     52.88316408	     -6.52027238	      2.45215454	     29.42384976	      0.51354306	      3.14473076	      0.00000000	      0.00000000	     41.55064725	     -2.15129872	     -7.88808470	     78.23078796	      1.36538483	     20.84293535	      0.00000000	      0.00000000	    -13.99397819	     -5.07853646	     -6.57724418	     89.87763324	     -5.33662887	     47.61305748	     47.37937994	     83.18435935	      0.00000000	      0.00000000	     89.94271021	    -13.24491880	     47.18982398	     49.07641499	     86.89968693	      0.00000000	      0.00000000
      3.84000000	      1.13571457	     -0.22498524	      2.91002774	     -0.35431669	      0.86374562	     -1.00441968	     52.99562453	     -6.55757701	      2.51719288	     29.47854002	      0.51449758	      3.20152624	      0.00000000	      0.00000000	     41.57355677	     -2.11065702	     -7.94314126	     78.25475302	      1.36580310	     20.89980157	      0.00000000	      0.00000000	    -13.99615112	     -5.08724452	     -6.64083279	     89.87799054	     -5.31954641	     47.60328572	     47.33713149	     83.78878174	      0.00000000	      0.00000000	     89.94283092	    -13.26178562	     47.15136468	     49.07965977	     86.83644417	      0.00000000	      0.00000000
      3.84500000	      1.10399057	     -0.22068713	      2.96769313	     -0.35436042	      0.86343351	     -1.00447024	     53.08164960	     -6.58322740	      2.53804866	     29.44010446	      0.51382675	      3.19426654	      0.00000000	      0.00000000	     41.65305669	     -2.10110358	     -7.94531897	     78.33547015	      1.36721188	     20.85525531	      0.00000000	      0.00000000	    -13.98601398	     -5.06478591	     -6.71625893	     89.87796398	     -5.28928175	     47.57869783	     47.30420912	     83.83630091	      0.00000000	      0.00000000	     89.94283592	    -13.30717869	     47.23444661	     49.11119250	     86.81356130	      0.00000000	      0.00000000
      3.85000000	      1.09972858	     -0.18119684	      3.01071124	     -0.35439750	      0.86311275	     -1.00452815	     53.16788244	     -6.63078855	      2.61590933	     29.47390614	      0.51441671	      3.17192899	      0.00000000	      0.00000000	     41.68156077	     -2.04295464	     -7.95388480	     78.38341713	      1.36804871	     20.89550505	      0.00000000	      0.00000000	    -14.00375630	     -5.07112579	     -6.75763918	     89.87794763	     -5.30119177	     47.57442648	     47.30199776	     83.76975425	      0.00000000	      0.00000000	     89.94295075	    -13.31867596	     47.24237408	     49.14740816	     86.83550890	      0.00000000	      0.00000000
      3.85500000	      1.05380309	     -0.18304068	      3.01740012	     -0.35444894	      0.86276562	     -1.00447976	     53.27341491	     -6.61504857	      2.66660371	     29.45744788	      0.51412945	      3.24543560	      0.00000000	      0.00000000	     41.76500722	     -2.05896894	     -7.97490785	     78.44157385	      1.36906373	     20.91337045	      0.00000000	      0.00000000	    -13.97024144	     -5.05678967	     -6.75021685	     89.87849100	     -5.30782357	     47.58372163	     47.28706607	     83.54218894	      0.00000000	      0.00000000	     89.94280137	    -13.30408369	     47.17987354	     49.15112247	     86.88216853	      0.00000000	      0.00000000
      3.86000000	      0.94337602	     -0.13958800	      3.10704583	     -0.35450461	      0.86224882	     -1.00459996	     53.48254642	     -6.72114349	      2.59004162	     29.50112386	      0.51489174	      3.11474752	      0.00000000	      0.00000000	     41.92816964	     -1.95619683	     -7.95686120	     78.49865484	      1.37005999	     20.94636811	      0.00000000	      0.00000000	    -13.87693569	     -5.06724708	     -6.83033081	     89.87907018	     -5.37288122	     47.83809621	     47.40074982	     81.23048349	      0.00000000	      0.00000000	     89.94310183	    -13.31389391	     47.21126532	     49.18172296	     87.03481064	      0.00000000	      0.00000000
      3.86500000	      0.96307781	     -0.11775462	      3.10189037	     -0.35457769	      0.86200556	     -1.00456291	     53.52780473	     -6.70549204	      2.63926758	     29.48381391	      0.51458963	      3.06924403	      0.00000000	      0.00000000	     41.91931377	     -1.95390888	     -7.99660759	     78.52910581	      1.37059146	     21.02014087	      0.00000000	      0.00000000	    -13.91376114	     -5.05920044	     -6.83604628	     89.87823760	     -5.29705158	     47.68282542	     47.48873269	     78.62489436	      0.00000000	      0.00000000	     89.94313253	    -13.32113036	     47.12968552	     49.16237374	     87.28598164	      0.00000000	      0.00000000
      3.87000000	      0.98592097	     -0.12544658	      3.14945858	     -0.35461291	      0.86178407	     -1.00464633	     53.55220971	     -6.71422349	      2.68094695	     29.49874625	      0.51485025	      3.12973995	      0.00000000	      0.00000000	     41.92085257	     -1.92964205	     -7.96311640	     78.56446257	      1.37120855	     21.04210886	      0.00000000	      0.00000000	    -13.96443661	     -5.01690692	     -6.85176752	     89.87827047	     -5.30516285	     47.47655409	     47.32249067	     83.68445835	      0.00000000	      0.00000000	     89.94321344	    -13.30292530	     47.16982122	     49.18052505	     86.82224626	      0.00000000	      0.00000000
      3.87500000	      0.98960922	     -0.12085153	      3.15555859	     -0.35462354	      0.86142767	     -1.00461440	     53.60777409	     -6.69828851	      2.76693058	     29.49698106	      0.51481944	      3.17949663	      0.00000000	      0.00000000	     41.95591183	     -1.94134581	     -7.98804262	     78.64741973	      1.37265642	     21.08757902	      0.00000000	      0.00000000	    -13.97964659	     -5.00194841	     -6.86671795	     89.87909628	     -5.27156876	     47.44741982	     47.30551525	     83.76099835	      0.00000000	      0.00000000	     89.94334922	    -13.32602519	     47.14637505	     49.20477145	     86.78857113	      0.00000000	      0.00000000
      3.88000000	      1.01185924	     -0.14397609	      3.16171902	     -0.35467243	      0.86118180	     -1.00456600	     53.63801974	     -6.65954822	      2.80494401	     29.48433089	      0.51459865	      3.08204363	      0.00000000	      0.00000000	     41.96401856	     -1.96971732	     -7.97688643	     78.70177538	      1.37360511	     21.09584507	      0.00000000	      0.00000000	    -14.01950948	     -4.95526879	     -6.84271238	     89.87927451	     -5.29064817	     47.43626044	     47.32626385	     83.58886989	      0.00000000	      0.00000000	     89.94347534	    -13.30507333	     47.12376740	     49.19800090	     86.82854821	      0.00000000	      0.00000000
      3.88500000	      1.01947373	     -0.18840564	      3.18145313	     -0.35468640	      0.86096057	     -1.00452167	     53.66639098	     -6.60699070	      2.83612350	     29.46720367	      0.51429973	      3.06838631	      0.00000000	      0.00000000	     41.99471274	     -1.99200278	     -7.90104952	     78.76475102	      1.37470424	     21.16119916	      0.00000000	      0.00000000	    -14.03871255	     -4.91152553	     -6.83315953	     89.88018294	     -5.34057786	     47.34834516	     47.45257433	     83.38522274	      0.00000000	      0.00000000	     89.94330420	    -13.22740452	     47.01838467	     49.14159035	     86.85561106	      0.00000000	      0.00000000
      3.89000000	      0.97664994	     -0.16923688	      3.17691596	     -0.35469375	      0.86049716	     -1.00447920	     53.80135294	     -6.59988520	      2.88088958	     29.53525174	      0.51548739	      3.10720020	      0.00000000	      0.00000000	     42.07468008	     -1.99460758	     -7.93414881	     78.84076557	      1.37603094	     21.17622796	      0.00000000	      0.00000000	    -14.00738026	     -4.90143241	     -6.82248234	     89.87901862	     -5.30397532	     47.23452629	     47.43731208	     83.72783472	      0.00000000	      0.00000000	     89.94366504	    -13.27793046	     46.99718447	     49.22902948	     86.78667297	      0.00000000	      0.00000000
      3.89500000	      0.96059073	     -0.17221481	      3.16706770	     -0.35467988	      0.86014706	     -1.00445805	     53.86507344	     -6.58159673	      2.86143444	     29.50772513	      0.51500696	      3.19881834	      0.00000000	      0.00000000	     42.12846067	     -2.01949751	     -7.94900067	     78.91853000	      1.37738819	     21.20025755	      0.00000000	      0.00000000	    -13.99086556	     -4.87781043	     -6.78022066	     89.87944080	     -5.33648014	     47.24713088	     47.47719109	     83.70306957	      0.00000000	      0.00000000	     89.94360183	    -13.24572114	     47.01040314	     49.16021028	     86.79973584	      0.00000000	      0.00000000
      3.90000000	      0.94101710	     -0.16273646	      3.15387321	     -0.35475917	      0.85977309	     -1.00437089	     53.96310206	     -6.57262049	      2.87281835	     29.51620038	      0.51515488	      3.09089247	      0.00000000	      0.00000000	     42.19012633	     -2.03016476	     -7.96249939	     78.98797243	      1.37860019	     21.20804794	      0.00000000	      0.00000000	    -13.99564524	     -4.88743116	     -6.77410231	     89.87978115	     -5.30057719	     47.14091273	     47.45131344	     83.69818635	      0.00000000	      0.00000000	     89.94378464	    -13.26731160	     46.99729388	     49.20907169	     86.79719169	      0.00000000	      0.00000000
      3.90500000	      0.94061069	     -0.14791537	      3.16266606	     -0.35479467	      0.85948917	     -1.00436390	     54.01505925	     -6.58052499	      2.89603842	     29.53028602	      0.51540072	      3.10717287	      0.00000000	      0.00000000	     42.22934149	     -2.00594337	     -7.91956909	     79.05615521	      1.37979020	     21.19374735	      0.00000000	      0.00000000	    -14.01156619	     -4.88455460	     -6.78505971	     89.88016944	     -5.28868836	     47.10320957	     47.46238911	     83.76774651	      0.00000000	      0.00000000	     89.94378036	    -13.28090529	     46.95760828	     49.23903627	     86.79526334	      0.00000000	      0.00000000
